<svg version="1.1" id="Layer_1" xmlns="http://www.w3.org/2000/svg" xmlns:xlink="http://www.w3.org/1999/xlink" x="0px" y="0px"
	 width="100%" viewBox="0 0 896 768" enable-background="new 0 0 896 768" xml:space="preserve">
<path fill="#000000" opacity="1.000000" stroke="none" 
	d="
M242.616379,403.403992 
	C245.978760,407.349030 248.969971,411.154755 252.285187,414.653442 
	C260.241394,423.050110 262.691956,433.781250 265.289551,444.473572 
	C266.700836,450.282684 267.710968,456.218842 269.564178,461.880981 
	C270.884674,465.915588 272.905548,470.078125 279.210999,469.541290 
	C278.081696,462.489899 282.516327,458.511169 287.343811,454.745148 
	C291.116211,451.802124 292.448425,447.818054 293.276520,443.137360 
	C296.361572,425.699677 297.000519,408.430328 291.621460,391.305359 
	C289.218628,383.655518 285.882629,376.391754 282.408112,369.188660 
	C277.270935,358.538696 272.032440,347.936890 266.979065,337.247437 
	C262.001160,326.717621 261.908325,315.640808 263.035278,304.105804 
	C266.598022,305.223755 264.282288,308.403229 266.695892,310.143311 
	C269.354645,305.825623 271.967499,301.582489 275.299469,296.171509 
	C269.446686,297.520660 265.023712,298.679535 260.543457,299.540375 
	C253.794266,300.837158 249.144073,298.152588 247.009628,291.655792 
	C244.293304,283.387878 245.509903,275.596771 250.219650,268.272797 
	C256.089203,259.145233 264.695709,253.228958 273.794281,247.851013 
	C275.476257,246.856842 277.489990,246.276978 278.767334,243.842529 
	C267.541382,242.559509 257.125793,238.347122 245.876663,238.195358 
	C231.866455,238.006378 225.373352,229.413879 228.500549,215.673950 
	C230.065292,208.798981 233.068405,202.817551 239.138428,198.791687 
	C241.578293,197.173477 242.588486,194.941116 242.670120,192.042130 
	C242.903381,183.759308 246.475296,176.776428 252.328354,171.280365 
	C262.414185,161.809692 274.249664,155.675552 288.335785,154.646820 
	C292.272614,154.359314 295.690338,153.191422 298.527985,150.137695 
	C304.185303,144.049561 311.504242,140.317459 318.841400,136.715775 
	C320.469421,135.916611 322.295441,134.431763 324.279144,136.184006 
	C324.577301,138.317734 322.943756,138.820450 321.623718,139.307190 
	C315.738068,141.477356 311.556061,145.714310 307.853424,150.510468 
	C301.909821,158.209335 294.480377,162.815506 284.632172,164.647537 
	C268.888428,167.576294 258.008514,177.656158 250.191742,191.266174 
	C249.050247,193.253647 248.762207,195.327759 250.234100,197.361954 
	C251.797073,199.522034 253.110519,196.501099 254.555344,197.053772 
	C256.630737,204.232330 257.645874,205.108322 265.067291,202.881607 
	C280.603638,198.220123 296.466370,197.328506 312.489563,198.047379 
	C322.212219,198.483582 329.126801,194.866028 334.607025,186.534973 
	C344.203369,171.946533 353.669922,157.215698 365.637665,144.304810 
	C371.235657,138.265640 370.534576,134.683167 363.749329,130.126266 
	C356.256195,125.093979 348.291107,120.965988 339.715759,118.029633 
	C338.014923,117.447227 335.576813,117.500763 335.191376,114.846786 
	C336.132965,113.326866 337.545868,113.613464 338.744202,114.018616 
	C347.247375,116.893555 356.097382,118.795273 364.199615,122.791161 
	C368.841064,125.080223 373.468628,127.535225 375.839417,132.546997 
	C377.381958,135.807877 378.118011,139.231918 376.434753,142.657974 
	C375.031219,145.514648 375.866638,147.662781 377.894501,149.827042 
	C381.994446,154.202789 386.044037,158.632507 389.950165,163.181030 
	C393.353241,167.143723 395.931732,171.681534 397.046387,176.797821 
	C398.315247,182.621902 396.397247,187.638107 392.132599,191.761993 
	C390.663055,193.183060 389.132721,194.539169 390.610107,196.865738 
	C396.985809,206.905945 396.925659,216.318329 387.142792,224.463318 
	C389.737701,227.412994 392.826782,227.233505 395.403839,227.463364 
	C409.321350,228.704727 423.266022,230.392212 437.205658,230.432587 
	C452.451721,230.476761 467.070129,233.162933 481.238617,238.127563 
	C507.296143,247.258102 534.192139,249.155396 561.452881,248.809509 
	C566.259949,248.748520 571.119263,248.028336 575.860474,249.454926 
	C582.642578,251.495621 585.024780,256.387939 582.684692,263.004608 
	C581.433838,266.541229 577.309265,269.491730 578.805786,273.399628 
	C580.284668,277.261414 585.316040,275.675232 588.470459,277.484344 
	C595.791138,281.682770 597.444580,288.653900 598.198914,296.111603 
	C598.482544,298.915619 598.372925,301.779327 598.222961,304.604126 
	C597.332886,321.366486 599.891724,337.542389 607.336670,352.631073 
	C612.383667,362.860016 615.697510,373.670349 619.087219,384.437683 
	C627.801331,412.118896 643.124451,435.175995 665.958313,453.121002 
	C681.915405,465.661560 695.135193,480.884277 708.506531,495.971832 
	C709.457214,497.044495 710.798767,498.034790 710.008423,500.066315 
	C707.775574,500.706879 706.917664,498.700165 705.779297,497.533539 
	C696.240112,487.757324 687.226318,477.467896 676.841553,468.522461 
	C671.653870,464.053802 666.435669,459.579712 660.586548,456.077576 
	C639.751953,443.603027 626.909546,424.786407 617.638611,403.010773 
	C608.692322,381.997559 602.973083,359.813385 594.275391,338.713654 
	C592.070496,333.364685 590.162964,327.841797 585.968140,322.991913 
	C589.752869,321.698242 589.916138,318.885010 589.851196,315.770111 
	C589.691589,308.109009 589.713196,300.443848 589.696472,292.780243 
	C589.691284,290.396301 589.225769,288.112488 588.083130,286.050018 
	C586.880737,283.879486 585.003479,282.375732 582.401733,282.761505 
	C579.417175,283.204102 577.023926,284.761871 576.323792,287.919525 
	C574.083984,298.021271 571.555908,308.157013 577.535034,317.948425 
	C577.747131,318.295746 577.562012,318.885681 577.562012,319.677307 
	C573.805969,320.161743 572.635193,317.507202 571.847534,314.921021 
	C569.765198,308.083405 570.600708,301.068604 571.071472,294.106781 
	C571.249634,291.471649 571.723450,288.856567 572.173950,285.369476 
	C560.957703,293.966431 554.616821,304.716736 551.385315,317.417084 
	C547.371765,333.190979 549.951294,348.858917 552.782043,364.420135 
	C555.606079,379.944214 559.724915,395.228821 561.822021,410.888397 
	C562.658813,417.136688 563.618347,423.423340 563.305298,429.774414 
	C562.440674,447.314697 572.411682,455.440643 585.380371,459.550232 
	C596.954773,463.217926 609.029968,464.899994 620.840698,467.648285 
	C626.343201,468.928650 631.826721,470.310455 637.263550,471.842346 
	C639.236694,472.398315 641.580750,472.726501 642.485046,475.214417 
	C641.202332,477.457703 639.134094,476.583801 637.608154,476.159698 
	C616.444885,470.277832 594.782532,466.569824 573.477966,461.326294 
	C565.089478,459.261688 556.862854,456.548309 548.513794,454.312408 
	C537.629089,451.397430 527.124573,454.171875 516.513977,456.454437 
	C496.962433,460.660431 477.150726,460.157959 457.368561,458.659088 
	C436.469025,457.075500 415.614075,454.839447 394.698700,453.554749 
	C382.915222,452.830963 371.161346,455.191254 359.343201,455.656586 
	C349.014465,456.063293 338.692169,455.921661 328.374634,456.293243 
	C319.555176,456.610840 310.731964,456.884064 301.921967,457.381226 
	C297.314362,457.641205 293.215088,459.564789 289.644653,462.456604 
	C286.112213,465.317657 286.240417,467.937775 290.238007,470.297363 
	C297.881195,474.808746 306.406769,474.904694 314.943970,474.871613 
	C317.270233,474.862579 319.873627,473.898590 321.833649,476.959656 
	C313.283203,478.920746 304.646088,478.525879 294.841827,477.532623 
	C301.590759,482.963226 308.468323,486.212189 315.658630,488.849884 
	C332.213440,494.922729 349.521423,497.315979 366.957489,498.633270 
	C392.670959,500.575989 418.438538,501.820984 444.139435,503.902008 
	C453.871277,504.690033 463.649109,505.924072 473.135468,508.665619 
	C486.073853,512.404724 495.738983,508.119812 502.077332,496.104248 
	C502.965149,494.421295 503.175598,492.159851 505.499054,491.503265 
	C507.707703,492.487671 506.545074,494.021240 506.067474,495.291534 
	C503.066681,503.273010 497.408630,509.014343 490.384705,513.537720 
	C479.242554,520.713135 466.841095,525.199585 454.698059,530.255005 
	C449.941376,532.235291 445.277985,534.500061 440.757599,536.974182 
	C432.760193,541.351318 430.744232,545.733765 432.575317,554.708374 
	C434.048920,561.930664 437.144073,568.603699 440.110626,575.310913 
	C441.061066,577.459778 442.445068,577.678894 444.524414,577.315735 
	C463.681152,573.969971 482.881989,570.866882 502.002350,567.327881 
	C508.816437,566.066650 515.640808,567.527344 522.396545,566.326416 
	C526.946411,565.517578 531.710571,565.349243 534.673950,560.759644 
	C537.153809,565.733154 536.128601,568.738892 531.381042,569.521790 
	C522.042908,571.061768 512.635315,572.235535 503.224152,573.265503 
	C484.042023,575.364929 465.185150,579.417847 446.174255,582.540466 
	C443.954926,582.905029 442.156708,583.829712 442.395111,586.809265 
	C442.859558,592.614807 442.977325,598.447144 443.349762,604.261230 
	C443.913788,613.066345 447.492615,616.961487 456.027893,618.595276 
	C475.125732,622.250916 494.229858,625.880798 513.282654,629.760376 
	C519.280945,630.981812 525.117310,632.989990 531.040771,634.589844 
	C534.930115,635.640381 536.192566,638.323242 536.059814,641.811523 
	C535.415161,642.697937 534.726624,642.799194 534.106995,642.534546 
	C512.379211,633.254883 489.171814,629.411987 466.367767,624.093384 
	C462.971680,623.301270 459.477234,622.879578 456.138000,621.909119 
	C452.568726,620.871765 451.659698,622.689575 451.322479,625.602295 
	C450.733154,630.692139 451.537476,635.770569 451.779297,640.754333 
	C449.187012,641.767822 448.974274,640.045532 448.505341,638.652222 
	C445.569061,629.927979 441.678101,621.737793 436.293152,614.175781 
	C430.832458,606.507324 432.335480,597.500183 433.106598,588.964966 
	C433.563171,583.911804 432.865204,579.460449 430.843933,574.964783 
	C427.016144,566.450867 423.370514,557.927917 423.573029,548.233826 
	C423.700500,542.133606 425.959808,537.274292 430.256561,533.200867 
	C434.161560,529.498901 438.674744,526.694275 443.532928,524.410461 
	C448.046936,522.288452 452.535126,520.111450 457.080688,516.966614 
	C449.839417,516.089050 442.601746,515.180847 435.356232,514.339905 
	C415.704590,512.059021 396.061798,509.693848 376.392517,507.575470 
	C357.551025,505.546204 338.705475,503.567230 320.200378,499.330292 
	C307.318665,496.380951 295.536438,491.154633 286.269806,481.367523 
	C284.245941,479.229980 282.415253,478.477753 279.321960,479.010712 
	C271.143097,480.419861 266.079468,477.036133 263.214813,469.100098 
	C260.315491,461.068054 259.919434,452.483856 257.677002,444.303223 
	C256.527405,440.109344 255.444519,435.834412 253.065155,432.218964 
	C247.045898,423.072601 241.546555,413.392487 234.850311,404.935669 
	C226.535629,394.434875 219.467133,383.239441 211.956116,372.270233 
	C204.017868,360.677063 195.389114,349.703705 183.378815,341.899200 
	C176.576828,337.479156 169.083542,334.732147 161.313751,332.806580 
	C147.400070,329.358459 136.472275,322.003296 128.795868,309.736664 
	C124.474045,302.830597 118.882568,296.735107 115.456413,289.244690 
	C114.765793,287.734833 113.015556,286.287933 114.632423,284.253784 
	C117.311806,284.490326 117.849525,286.951233 119.027313,288.583527 
	C126.052261,298.319672 133.072617,308.019043 142.378784,315.826508 
	C146.538223,319.316101 150.985550,322.289917 156.174530,323.663879 
	C183.307175,330.848206 202.217041,348.849243 218.361954,370.538055 
	C226.420822,381.364197 234.385361,392.260468 242.616379,403.403992 
M489.126709,345.419525 
	C486.485168,344.220337 484.058655,342.464294 480.943787,342.042664 
	C486.666412,360.213287 484.145630,372.138947 472.931702,380.561829 
	C463.081512,387.960388 449.893433,388.510071 439.782349,381.334961 
	C424.972473,370.825470 424.820984,356.746338 431.370117,340.976654 
	C421.686584,342.840118 412.347900,343.465179 403.840546,347.665588 
	C402.625183,348.265625 401.395660,348.935089 400.041473,348.388550 
	C396.334473,346.892242 392.519989,347.321136 388.701324,347.579987 
	C387.531342,347.659271 386.306335,347.733154 386.068176,345.898651 
	C391.296570,340.665070 399.738098,344.973145 405.265472,339.942078 
	C398.162842,329.340485 392.069305,318.571198 389.210693,305.666504 
	C386.917999,308.562561 386.305115,311.193024 385.499969,313.688599 
	C378.881592,334.202606 376.985840,355.185730 378.026154,376.713776 
	C379.057129,398.048767 382.242157,419.003540 386.093018,439.936615 
	C386.878326,444.205505 389.106079,445.161743 392.699066,444.570862 
	C396.671082,443.917633 400.574951,443.733215 404.611328,444.267303 
	C418.427063,446.095428 431.920624,449.566742 446.014709,450.214447 
	C471.751617,451.397217 497.222961,449.808594 522.635254,446.161682 
	C532.326294,444.770935 541.916626,442.251465 551.816284,444.477966 
	C555.197510,445.238434 555.639587,443.174683 555.679932,440.437500 
	C555.998779,418.839172 553.593628,397.599640 547.359741,376.872528 
	C543.614502,364.419952 539.880981,351.985840 540.683960,338.745789 
	C540.803528,336.774323 540.141296,335.133026 538.525024,333.958954 
	C529.195190,327.181519 522.535095,318.006439 515.869995,308.826874 
	C515.143127,307.825806 514.668884,306.381195 512.262451,306.461334 
	C514.762146,324.458160 523.118164,339.478363 534.470825,353.348938 
	C528.682678,350.473389 523.684753,347.076965 518.768982,343.565460 
	C507.942261,335.831543 497.723389,327.177399 485.303528,321.889282 
	C479.459656,319.401093 473.580109,317.394348 466.815765,318.597992 
	C467.259705,324.146057 469.947845,327.912842 474.909943,328.997925 
	C485.118256,331.230377 494.373627,337.024170 505.165131,336.996918 
	C505.858368,336.995148 506.280151,337.638458 506.284546,337.995453 
	C506.278870,340.427460 503.322113,339.937653 503.242249,342.088898 
	C507.131775,345.774841 513.021362,345.667603 517.743347,348.339691 
	C515.588196,351.203827 512.192200,349.870209 510.720764,352.579681 
	C513.467834,356.280457 516.255615,359.934448 520.585632,362.113647 
	C524.129944,363.897400 525.376831,366.654449 523.396484,370.344818 
	C521.928711,373.079834 519.802002,375.725311 516.718933,375.909576 
	C508.561981,376.397095 502.484436,380.649780 496.427216,385.467529 
	C494.016876,387.384644 490.838409,388.366547 487.956268,389.654846 
	C471.809509,396.872284 454.953461,396.752625 438.011566,393.900848 
	C424.796204,391.676392 412.651276,386.895813 403.726349,376.169586 
	C402.567444,374.776794 400.583923,373.512817 402.045166,371.232330 
	C404.100586,370.836548 404.946930,372.253082 405.892456,373.332794 
	C412.702454,381.109222 421.378906,385.751984 431.133240,388.739441 
	C442.664551,392.271088 454.480499,392.452026 466.266602,391.326599 
	C472.799408,390.702789 479.440887,389.750610 485.415344,386.308014 
	C494.681793,380.968536 503.094910,373.666382 514.552612,373.111237 
	C515.350891,373.072571 516.158813,372.666290 516.909180,372.317047 
	C518.800354,371.436920 520.468811,370.197540 520.485657,367.927795 
	C520.501648,365.779419 518.434204,365.495117 516.969421,364.921021 
	C515.023010,364.158112 513.222351,362.728027 510.845734,363.151733 
	C509.878387,364.439362 510.922394,366.671997 509.009766,367.413635 
	C507.335693,367.223511 506.857727,366.062378 507.117096,364.900146 
	C508.265594,359.754120 504.858521,356.760742 501.776031,353.819153 
	C498.272308,350.475616 494.006317,348.106659 489.126709,345.419525 
M375.176453,397.079803 
	C373.244476,369.003815 371.962036,340.907043 373.048370,312.760010 
	C373.375275,304.290466 374.235565,295.842804 374.708344,287.377136 
	C375.059784,281.083374 369.580322,283.533752 366.706146,282.596619 
	C363.285645,281.481354 363.267670,284.509644 363.189331,286.926208 
	C362.924896,295.079590 362.664703,303.233582 362.299805,311.382721 
	C362.235535,312.817627 363.094299,314.813080 360.707153,315.473297 
	C358.921234,314.220032 359.645630,312.417664 359.638397,310.872009 
	C359.600220,302.709442 359.690094,294.546173 359.637268,286.383789 
	C359.625000,284.488922 360.410645,282.105408 358.090393,281.007935 
	C355.608215,279.833893 353.978271,281.751007 352.554749,283.307220 
	C348.956512,287.240753 344.415588,288.965088 339.264313,289.332916 
	C334.620850,289.664551 329.968048,289.865448 325.319427,290.124756 
	C318.336975,290.514160 318.486267,290.519287 318.254272,297.659973 
	C318.155548,300.697998 319.555023,304.176727 316.304718,307.287811 
	C313.188995,302.339111 316.666901,296.581329 313.763611,291.736816 
	C311.430298,294.106110 312.281036,296.547821 312.246155,298.756500 
	C311.770203,328.907501 314.840912,358.936279 315.413574,389.056732 
	C315.650543,401.520752 316.471619,413.990540 317.529999,426.414825 
	C318.033691,432.327545 318.842621,438.307129 320.968140,443.981079 
	C321.934906,446.561707 323.071136,448.534851 326.609314,447.433685 
	C327.453033,437.313416 322.544006,427.355865 324.380615,416.866455 
	C327.056885,417.634125 327.189667,419.006317 327.228546,420.344757 
	C327.470520,428.678436 329.377106,436.805298 330.233795,445.058655 
	C330.476624,447.397827 331.137451,449.016174 333.718933,448.885956 
	C343.020081,448.416840 352.351593,449.270569 361.646606,447.978455 
	C365.283356,447.472900 365.892242,446.079376 365.222412,442.679779 
	C363.296997,432.907501 361.726410,423.065155 360.037323,413.246704 
	C359.788696,411.801422 359.195465,409.907928 361.141876,409.431763 
	C363.159851,408.938110 364.021088,410.574402 364.334229,412.379486 
	C364.674561,414.341309 365.043457,416.299927 365.313507,418.271790 
	C366.416016,426.321960 367.398041,434.390015 368.624146,442.420959 
	C368.961609,444.631378 369.455719,446.783539 372.858917,446.860352 
	C377.480743,446.964661 379.106598,445.353973 378.703278,440.741486 
	C377.458405,426.504608 376.455383,412.246613 375.176453,397.079803 
M361.323456,262.772491 
	C359.323425,266.317841 360.745239,268.790924 363.839600,270.709778 
	C366.125824,272.127472 368.651581,272.951080 371.241669,273.609680 
	C379.841583,275.796478 388.710754,276.589844 397.446075,276.493805 
	C421.983978,276.224121 446.293732,278.836456 470.493896,282.046417 
	C492.924042,285.021606 515.201843,285.551361 537.580811,282.639832 
	C550.235962,280.993317 561.894043,276.925323 570.829956,267.228577 
	C573.119019,264.744568 576.943054,262.302612 575.384705,258.483795 
	C573.798035,254.595581 569.469116,256.368835 566.387390,256.434265 
	C542.181763,256.948364 518.059875,256.062561 494.744812,249.001633 
	C474.540039,242.882660 454.125092,239.306381 432.995850,238.869507 
	C420.237030,238.605698 407.365753,237.669281 394.973511,234.260712 
	C385.728729,231.717896 379.095673,234.934937 373.557861,241.923828 
	C368.664032,248.100037 365.187195,255.119781 361.323456,262.772491 
M265.135681,234.123718 
	C283.508270,236.968552 302.120270,238.456848 320.198364,242.942490 
	C329.731232,245.307846 336.466614,242.182602 341.632294,234.524445 
	C344.794220,229.836945 347.658447,224.947510 350.622894,220.128174 
	C357.706757,208.611938 366.408752,198.732162 378.436401,192.097641 
	C380.750244,190.821289 382.823761,189.090637 384.942322,187.482803 
	C389.101013,184.326599 389.897308,180.548904 387.814423,175.622452 
	C383.393494,165.166031 374.832062,158.129929 367.670166,149.678513 
	C363.424133,152.811218 360.844543,156.944809 357.740112,160.579391 
	C349.377899,170.369659 343.527588,181.894775 335.976807,192.246902 
	C331.878357,197.865875 326.613068,201.806625 319.471619,202.258408 
	C311.339630,202.772888 303.183807,203.159134 295.038727,203.152069 
	C285.286835,203.143600 275.804474,204.268112 266.701752,207.916794 
	C261.692780,209.924576 257.056519,209.695297 252.689941,206.055969 
	C250.250626,204.022919 247.481857,202.351608 244.076752,204.522293 
	C240.231598,206.973480 237.864380,210.221268 237.290726,215.394699 
	C247.127808,215.972305 256.735352,212.106461 266.177063,216.027054 
	C265.104889,218.229828 263.914948,217.986557 262.770813,217.795715 
	C255.412399,216.568314 248.213745,217.981415 240.980972,219.026794 
	C238.288330,219.415970 236.079117,220.019669 236.036163,223.374771 
	C235.993195,226.730865 237.619339,228.726746 240.804474,229.427307 
	C248.588898,231.139450 256.338074,233.047394 265.135681,234.123718 
M266.097778,261.619080 
	C259.339783,266.624298 254.683746,272.922363 253.388672,281.625824 
	C256.992340,281.364105 257.533203,275.810913 262.110901,277.588043 
	C261.137848,280.459351 258.951447,282.082245 257.233582,284.020020 
	C255.563995,285.903351 254.484253,288.041718 255.854630,290.351898 
	C257.211456,292.639282 259.729431,292.083923 261.766479,291.574493 
	C266.115540,290.486877 270.388031,289.092438 274.688995,287.813843 
	C278.093079,286.801941 282.024933,286.901245 284.152863,282.699493 
	C287.615906,286.947754 291.781281,286.000183 295.834900,285.107025 
	C307.724854,282.487030 319.750336,280.485138 331.907990,280.925842 
	C341.441528,281.271423 346.955109,277.125824 351.039856,268.906281 
	C360.102722,250.669632 371.069641,233.589020 383.997803,217.803085 
	C387.908447,213.028030 387.760071,212.162872 383.141449,208.064926 
	C382.809448,207.770355 382.712708,207.210632 382.619202,207.012650 
	C382.494904,205.086426 384.763245,206.077621 384.932709,204.509872 
	C384.558380,203.736435 384.058167,202.869705 383.705688,201.946533 
	C381.958740,197.370926 379.254578,196.851334 375.325500,199.595352 
	C372.185974,201.787964 368.988220,203.846054 366.176849,206.496048 
	C357.273987,214.887848 351.685120,225.487396 346.151001,236.137970 
	C340.222351,247.547852 333.837952,250.942261 321.111603,249.468216 
	C315.006805,248.761108 308.916931,247.753067 302.791443,247.430878 
	C288.793549,246.694641 277.676270,253.871582 266.097778,261.619080 
M292.231689,362.949249 
	C291.306396,353.050781 292.552216,343.390259 295.637787,333.980377 
	C296.835358,330.328339 298.248840,326.179138 302.090698,324.915283 
	C308.380096,322.846313 306.856201,318.644409 306.281067,314.047943 
	C300.607178,315.114197 296.521423,318.039093 293.291382,322.225464 
	C282.681183,335.977112 281.460175,356.115509 290.951263,370.774658 
	C298.332977,382.175812 303.634552,393.926361 303.552643,407.906128 
	C303.517792,413.850555 306.317291,419.339966 311.498444,424.097809 
	C312.258331,415.376587 310.424103,407.722412 306.723602,400.932312 
	C300.712677,389.902740 302.292908,378.404297 303.015686,366.849335 
	C303.101898,365.471008 303.086060,363.779694 305.483154,363.137787 
	C307.446716,368.354065 305.746521,373.485626 305.393555,378.598267 
	C304.932129,385.282349 306.096710,390.342651 309.118347,394.252838 
	C308.332764,375.415802 307.569946,357.125458 306.780090,338.186432 
	C303.693634,341.033661 304.495880,344.949463 301.614929,347.101990 
	C298.880341,344.515717 300.878937,342.126495 301.507294,339.771423 
	C302.153564,337.349274 304.354187,335.278625 303.197418,331.921722 
	C300.356598,334.459320 298.905273,337.373779 297.923035,340.537170 
	C294.583282,351.293213 294.284607,362.086334 297.606995,372.924438 
	C298.131134,374.634155 299.656342,376.454895 297.189636,378.848083 
	C293.674713,374.156616 293.137939,368.955750 292.231689,362.949249 
M415.067444,329.608337 
	C421.899658,331.199341 428.729492,333.343811 436.220551,329.819672 
	C428.226105,321.549042 423.364563,311.864838 418.909210,301.995056 
	C417.214264,298.240173 414.583801,298.007263 411.214020,298.300323 
	C407.642853,298.610901 405.261108,300.076691 404.536865,303.793182 
	C402.833405,312.535156 402.519684,321.321442 404.216003,330.062164 
	C405.606659,337.228058 411.510651,339.184357 417.900452,334.931305 
	C417.912140,332.412170 412.451263,333.614807 415.067444,329.608337 
M451.535583,374.911011 
	C454.701538,376.359985 457.849213,375.126343 460.854370,374.505035 
	C469.720673,372.671997 475.117554,363.648376 473.657349,353.676239 
	C472.447052,345.410583 463.748169,338.069458 455.663422,338.449646 
	C453.752106,338.539581 452.486572,339.166870 452.354431,341.322083 
	C452.210876,343.663147 453.223175,344.744507 455.554901,344.654938 
	C456.219452,344.629395 456.891510,344.646362 457.552887,344.714355 
	C463.481934,345.323761 467.824310,350.025208 468.112091,356.126984 
	C468.405212,362.342194 464.146240,367.520447 458.045410,368.470001 
	C452.976959,369.258881 448.634827,368.004486 445.922577,363.504303 
	C442.995209,358.647186 443.211334,353.554413 446.589813,348.976959 
	C448.505402,346.381500 449.488831,343.987427 447.954926,340.575378 
	C440.120544,344.908997 437.660217,351.505371 438.292725,359.591248 
	C438.911835,367.505219 443.492493,372.265778 451.535583,374.911011 
M540.256348,299.159149 
	C538.594666,296.556732 538.125854,291.916718 535.027039,291.769623 
	C528.281799,291.449493 521.191833,290.844391 514.286865,294.529938 
	C520.418152,307.528351 526.866028,319.498291 539.961304,326.339691 
	C538.191284,318.446991 532.506531,312.097931 531.315735,302.620758 
	C537.560425,307.097168 537.446960,314.423065 542.207458,318.204590 
	C544.558411,316.934967 544.506165,314.913574 544.692627,312.935699 
	C545.160095,307.978333 542.581116,304.000916 540.256348,299.159149 
M449.935272,287.441620 
	C447.628479,287.172150 445.324158,286.878967 443.014374,286.638275 
	C438.380066,286.155426 436.191620,288.337708 437.505188,292.801941 
	C440.290527,302.268066 445.012878,310.715790 451.872070,318.425323 
	C452.322479,314.254364 448.508728,310.810577 451.761475,305.682739 
	C454.867584,313.863220 458.688721,320.294647 463.050629,326.404083 
	C459.667572,315.388794 456.787872,304.352875 455.542755,292.940125 
	C455.220062,289.982483 453.972046,287.916504 449.935272,287.441620 
M491.942535,317.731201 
	C489.705444,312.367554 487.002197,307.238159 483.956116,302.300079 
	C480.949860,297.426483 470.973633,293.845795 465.602203,295.583130 
	C463.666321,296.209198 462.709930,297.555756 462.371521,299.560974 
	C460.930328,308.099915 464.293610,312.787659 472.684143,313.826874 
	C473.338776,313.907959 473.976135,314.130829 474.630890,314.208099 
	C480.973541,314.956543 486.770508,317.510590 493.029114,320.336884 
	C492.565002,319.166565 492.383911,318.709869 491.942535,317.731201 
M502.816010,296.697113 
	C501.882538,294.573975 501.516571,290.825531 498.103333,293.218964 
	C496.364288,294.438385 494.103973,294.235474 493.589325,294.673553 
	C490.157410,297.595093 489.604309,291.146545 486.322876,293.297333 
	C493.038605,310.789673 503.757263,325.383545 517.888977,337.650208 
	C517.369751,335.910339 516.464539,334.379517 515.752075,332.763763 
	C514.135437,329.097504 510.426575,326.387787 509.941376,322.381897 
	C508.887085,313.677094 505.191162,305.782837 502.816010,296.697113 
M446.001495,376.850800 
	C438.901703,372.924103 435.074066,366.699188 434.096649,358.854523 
	C433.124023,351.048492 436.399567,344.595581 443.106659,338.349182 
	C435.395660,341.525848 430.090881,353.534058 431.571259,361.632324 
	C433.914337,374.450256 442.271454,381.187012 456.575897,381.788849 
	C466.995850,382.227295 475.650330,375.385010 478.559692,364.408325 
	C481.353668,353.867188 478.815033,344.499329 472.247650,341.115845 
	C482.512695,357.789032 477.999664,365.115234 472.183136,372.016144 
	C467.138763,378.000946 455.956024,382.171082 446.001495,376.850800 
M396.263611,312.294464 
	C396.899109,314.173828 397.534637,316.053162 398.170135,317.932526 
	C397.761566,307.241974 401.107483,297.200104 402.355469,287.142731 
	C395.884888,282.977936 397.070679,290.872284 394.591125,292.014038 
	C392.018188,291.185577 393.376373,288.656860 391.390076,287.064789 
	C391.404907,296.069153 393.737183,303.805023 396.263611,312.294464 
M431.011810,316.286377 
	C429.738922,307.746552 429.416656,299.148315 429.722321,290.539703 
	C429.858368,286.707733 427.886322,285.993713 424.757233,286.403076 
	C421.195007,286.869080 419.626587,289.721252 420.792450,293.920532 
	C422.982178,301.807800 426.410248,309.164551 431.011810,316.286377 
M463.851746,358.134827 
	C464.442963,353.348236 462.672302,349.825500 457.902344,348.609344 
	C454.586121,347.763885 451.370819,348.285339 449.791534,351.962006 
	C451.322571,354.181122 452.795898,353.154419 454.331940,352.478851 
	C456.668640,351.451141 458.721832,352.144989 459.865356,354.284851 
	C460.754852,355.949371 460.604614,357.952515 458.987152,359.299530 
	C457.268585,360.730713 455.337646,360.655212 453.450287,359.476440 
	C451.984802,358.561127 451.004395,356.687805 448.849915,357.070129 
	C448.552582,361.170227 450.081665,363.549957 453.557983,364.476746 
	C458.149414,365.700806 461.515411,363.861359 463.851746,358.134827 
M450.701233,326.454315 
	C450.131287,323.654510 448.117096,321.871033 446.003967,320.337158 
	C443.237305,318.328918 440.166718,318.826202 437.634827,320.695404 
	C435.507843,322.265656 437.259186,324.356049 437.862732,326.124329 
	C438.949493,329.308350 441.270782,329.685028 444.175568,328.708740 
	C446.201782,328.027740 448.288574,327.527039 450.701233,326.454315 
M384.801849,285.404816 
	C381.757629,283.546844 380.086670,284.412537 380.035461,287.963257 
	C379.959656,293.220703 380.015839,298.480072 380.015839,303.738617 
	C381.994141,297.775970 384.507538,292.126862 384.801849,285.404816 
M436.160583,304.395294 
	C432.585632,308.394012 434.986115,312.189209 436.106079,316.135498 
	C438.334015,315.952393 440.191925,316.139191 441.605774,314.359192 
	C440.648529,310.787048 438.539520,307.799866 436.160583,304.395294 
M543.565857,297.867676 
	C544.887085,299.736725 545.242798,302.484070 548.679932,303.361389 
	C548.539368,298.116852 545.785339,294.781494 543.283020,290.604858 
	C541.819885,293.502991 542.497070,295.349976 543.565857,297.867676 
M552.552429,293.702087 
	C554.359192,292.618347 555.941406,291.300934 554.950806,288.946075 
	C554.270813,287.329651 552.703125,286.996765 551.125732,287.535065 
	C549.652466,288.037811 548.303833,288.958679 548.477295,290.730286 
	C548.666382,292.660980 549.328003,294.409821 552.552429,293.702087 
z"/>
</svg>